<mxfile host="app.diagrams.net" modified="2024-02-27T00:18:51.292Z" agent="Mozilla/5.0 (Windows NT 10.0; Win64; x64) AppleWebKit/537.36 (KHTML, like Gecko) Chrome/121.0.0.0 Safari/537.36" etag="0Hxmotnc5kYY9RSfG4mY" version="23.1.6" type="device">
  <diagram name="Page-1" id="BB8ORXOdJSrkjL7iMyiM">
    <mxGraphModel dx="1743" dy="509" grid="1" gridSize="10" guides="1" tooltips="1" connect="1" arrows="1" fold="1" page="1" pageScale="1" pageWidth="850" pageHeight="1100" math="0" shadow="0">
      <root>
        <mxCell id="0" />
        <mxCell id="1" parent="0" />
        <mxCell id="KiaLSPO8NzXiRFpHlgbl-7" value="" style="rounded=1;arcSize=10;dashed=0;fillColor=none;gradientColor=none;strokeWidth=2;" vertex="1" parent="1">
          <mxGeometry x="-60" y="76" width="670" height="450" as="geometry" />
        </mxCell>
        <mxCell id="KiaLSPO8NzXiRFpHlgbl-14" value="" style="edgeStyle=orthogonalEdgeStyle;rounded=0;orthogonalLoop=1;jettySize=auto;html=1;" edge="1" parent="1" source="KiaLSPO8NzXiRFpHlgbl-2" target="KiaLSPO8NzXiRFpHlgbl-4">
          <mxGeometry relative="1" as="geometry" />
        </mxCell>
        <mxCell id="KiaLSPO8NzXiRFpHlgbl-2" value="Amazon S3" style="sketch=0;outlineConnect=0;fontColor=#232F3E;gradientColor=none;strokeColor=#ffffff;fillColor=#232F3E;dashed=0;verticalLabelPosition=middle;verticalAlign=bottom;align=center;html=1;whiteSpace=wrap;fontSize=10;fontStyle=1;spacing=3;shape=mxgraph.aws4.productIcon;prIcon=mxgraph.aws4.s3;" vertex="1" parent="1">
          <mxGeometry x="-10" y="276" width="50" height="80" as="geometry" />
        </mxCell>
        <mxCell id="KiaLSPO8NzXiRFpHlgbl-3" value="AWS Certificate Manager" style="sketch=0;outlineConnect=0;fontColor=#232F3E;gradientColor=none;strokeColor=#ffffff;fillColor=#232F3E;dashed=0;verticalLabelPosition=middle;verticalAlign=bottom;align=center;html=1;whiteSpace=wrap;fontSize=10;fontStyle=1;spacing=3;shape=mxgraph.aws4.productIcon;prIcon=mxgraph.aws4.certificate_manager_3;" vertex="1" parent="1">
          <mxGeometry x="240" y="140" width="50" height="84" as="geometry" />
        </mxCell>
        <mxCell id="KiaLSPO8NzXiRFpHlgbl-15" value="" style="edgeStyle=orthogonalEdgeStyle;rounded=0;orthogonalLoop=1;jettySize=auto;html=1;" edge="1" parent="1" source="KiaLSPO8NzXiRFpHlgbl-4" target="KiaLSPO8NzXiRFpHlgbl-5">
          <mxGeometry relative="1" as="geometry">
            <Array as="points">
              <mxPoint x="220" y="316" />
              <mxPoint x="220" y="316" />
            </Array>
          </mxGeometry>
        </mxCell>
        <mxCell id="KiaLSPO8NzXiRFpHlgbl-4" value="Amazon Cloudfront" style="sketch=0;outlineConnect=0;fontColor=#232F3E;gradientColor=none;strokeColor=#ffffff;fillColor=#232F3E;dashed=0;verticalLabelPosition=middle;verticalAlign=bottom;align=center;html=1;whiteSpace=wrap;fontSize=10;fontStyle=1;spacing=3;shape=mxgraph.aws4.productIcon;prIcon=mxgraph.aws4.cloudfront;" vertex="1" parent="1">
          <mxGeometry x="110" y="276" width="50" height="80" as="geometry" />
        </mxCell>
        <mxCell id="KiaLSPO8NzXiRFpHlgbl-16" value="" style="edgeStyle=orthogonalEdgeStyle;rounded=0;orthogonalLoop=1;jettySize=auto;html=1;" edge="1" parent="1" source="KiaLSPO8NzXiRFpHlgbl-5" target="KiaLSPO8NzXiRFpHlgbl-3">
          <mxGeometry relative="1" as="geometry" />
        </mxCell>
        <mxCell id="KiaLSPO8NzXiRFpHlgbl-5" value="Amazon Route 53" style="sketch=0;outlineConnect=0;fontColor=#232F3E;gradientColor=none;strokeColor=#ffffff;fillColor=#232F3E;dashed=0;verticalLabelPosition=middle;verticalAlign=bottom;align=center;html=1;whiteSpace=wrap;fontSize=10;fontStyle=1;spacing=3;shape=mxgraph.aws4.productIcon;prIcon=mxgraph.aws4.route_53;" vertex="1" parent="1">
          <mxGeometry x="240" y="276" width="50" height="89" as="geometry" />
        </mxCell>
        <mxCell id="KiaLSPO8NzXiRFpHlgbl-6" value="" style="outlineConnect=0;dashed=0;verticalLabelPosition=bottom;verticalAlign=top;align=center;html=1;shape=mxgraph.aws3.iam;fillColor=#759C3E;gradientColor=none;" vertex="1" parent="1">
          <mxGeometry x="550" y="96" width="42" height="81" as="geometry" />
        </mxCell>
        <mxCell id="KiaLSPO8NzXiRFpHlgbl-8" value="" style="dashed=0;html=1;shape=mxgraph.aws3.cloud;fillColor=#F58536;gradientColor=none;dashed=0;" vertex="1" parent="1">
          <mxGeometry x="-40" y="60" width="52" height="36" as="geometry" />
        </mxCell>
        <mxCell id="KiaLSPO8NzXiRFpHlgbl-13" value="" style="edgeStyle=orthogonalEdgeStyle;rounded=0;orthogonalLoop=1;jettySize=auto;html=1;" edge="1" parent="1" source="KiaLSPO8NzXiRFpHlgbl-12" target="KiaLSPO8NzXiRFpHlgbl-7">
          <mxGeometry relative="1" as="geometry" />
        </mxCell>
        <mxCell id="KiaLSPO8NzXiRFpHlgbl-12" value="Actor" style="shape=umlActor;verticalLabelPosition=bottom;verticalAlign=top;html=1;outlineConnect=0;" vertex="1" parent="1">
          <mxGeometry x="710" y="271" width="30" height="60" as="geometry" />
        </mxCell>
      </root>
    </mxGraphModel>
  </diagram>
</mxfile>
